Coordinates
version=1
nRows=19
nColumns=36
inDegrees=yes

Units are S.I. units (second, meters, Newtons, ...)
If the header above contains a line with 'inDegrees', this indicates whether rotational values are in degrees (yes) or radians (no).

endheader
time	pelvis_tilt	pelvis_list	pelvis_rotation	pelvis_tx	pelvis_ty	pelvis_tz	hip_flexion_r	hip_adduction_r	hip_rotation_r	knee_angle_r	knee_angle_r_beta	ankle_angle_r	subtalar_angle_r	mtp_angle_r	hip_flexion_l	hip_adduction_l	hip_rotation_l	knee_angle_l	knee_angle_l_beta	ankle_angle_l	subtalar_angle_l	mtp_angle_l	lumbar_extension	lumbar_bending	lumbar_rotation	arm_flex_r	arm_add_r	arm_rot_r	elbow_flex_r	pro_sup_r	arm_flex_l	arm_add_l	arm_rot_l	elbow_flex_l	pro_sup_l
      1.96666670	     -7.50167911	      1.47564719	      1.95373835	      0.52390633	      1.16052707	      0.00164789	      8.41895828	     -3.33731285	     -5.48413940	      7.92483874	      0.13831453	    -38.95838533	    -10.85207394	     -7.49999987	      6.46277401	     -7.44318124	     -3.05449977	     10.52254829	      0.18365311	    -45.11716308	    -26.56724339	     -7.49999987	     -2.95772717	     -1.47021564	     -2.14772319	     -2.35937073	     -2.19660063	    -27.12379903	     18.48441233	     73.45585777	     -0.82259467	     -9.68546647	      2.48375021	     59.92893505	     98.50704141
      1.97083330	     -8.03570482	      1.70515133	      1.79226635	      0.51954574	      1.15714751	     -0.00154920	      9.37324076	     -3.59018420	     -6.31785864	      8.02526283	      0.14006726	    -38.92743985	    -10.76881698	     -7.49999987	      7.39094446	     -7.26106050	     -2.78995416	     10.79352950	      0.18838263	    -44.20102021	    -25.02797716	     -7.49999987	     -2.63539465	     -1.66273400	     -2.32993148	     -1.98945053	     -2.14918053	    -26.90768181	     18.86531485	     73.50387341	     -0.40977560	     -9.97022686	      2.83814624	     60.98953573	     98.70492134
      1.97500000	     -8.43361141	      2.07129968	      1.61597341	      0.51961565	      1.15800710	     -0.00163037	     10.04862049	     -3.95179696	     -6.70672567	      7.97120009	      0.13912369	    -39.15123198	    -10.74036750	     -7.49999987	      8.12958931	     -6.91211964	     -2.31562095	     10.90617474	      0.19034866	    -43.82502075	    -23.69970192	     -7.49999987	     -2.57256215	     -1.97775766	     -2.64624120	     -1.45623457	     -2.29799297	    -25.52772290	     19.13470326	     73.01724696	      0.37935955	    -10.35747632	      3.85420754	     61.69751788	     99.11016884
      1.97916670	     -8.72173672	      2.30447324	      1.69867044	      0.52349708	      1.15491216	      0.00374275	     10.60224984	     -4.17311362	     -7.08156431	      8.06697633	      0.14079530	    -38.95468711	    -10.53244695	     -7.49999987	      8.80967609	     -6.88170166	     -1.63492225	     11.30826328	      0.19736643	    -43.11308023	    -22.74718405	     -7.49999987	     -2.55100865	     -2.36053068	     -3.05624596	     -1.03815128	     -2.24169400	    -25.32927026	     19.38845487	     73.04904678	      0.98405332	    -10.77900859	      4.55063367	     62.47654129	     99.56669765
      1.98333330	     -9.02648849	      2.42225499	      1.87410481	      0.52376877	      1.15856495	      0.00309164	     10.96461521	     -4.40590234	     -7.48827547	      7.50237096	      0.13094107	    -39.09260345	    -10.14179714	     -7.49999987	      9.39348708	     -6.85761008	     -1.10267253	     11.55464127	      0.20166653	    -42.42574169	    -21.48431416	     -7.49999987	     -2.26904767	     -2.41762776	     -3.33873818	     -0.70067634	     -2.44123331	    -25.14875878	     19.76580878	     73.06947593	      1.52732049	    -10.92803408	      5.34763624	     62.73424045	     99.86633522
      1.98750000	     -9.17687272	      2.41864118	      1.88674078	      0.52378514	      1.15808317	      0.00402218	     11.16186391	     -4.44717163	     -8.03731343	      6.87128798	      0.11992660	    -39.41775282	     -9.96178428	     -7.49999987	      9.52111960	     -7.06331512	     -1.11023819	     11.20473169	      0.19555946	    -41.83248796	    -20.43618106	     -7.49999987	     -2.01300668	     -2.45922410	     -3.19936738	     -0.48061725	     -2.68231746	    -24.37606306	     20.11601563	     71.44288397	      2.37278840	    -11.10392838	      6.84700744	     62.42235883	     97.63446289
      1.99166670	     -9.34033412	      2.40729704	      1.83436921	      0.52823124	      1.15846324	      0.00799497	     11.11085888	     -4.37317631	     -8.70356100	      5.90231645	      0.10301486	    -39.93978547	     -9.94819739	     -7.49999987	      9.40636255	     -7.35964671	     -1.18937307	     10.66583682	      0.18615397	    -41.22987734	    -19.71050025	     -7.49999987	     -1.59302539	     -2.59079906	     -3.29231963	     -0.23530547	     -2.69191681	    -23.93410755	     20.60136298	     71.60752812	      2.67127491	    -11.12524611	      7.40706739	     62.43962477	     98.10117191
      1.99583330	     -9.56087229	      2.39467667	      1.99634745	      0.52847188	      1.15717863	      0.00840107	     11.04472661	     -4.32048176	     -9.06371505	      4.82003424	      0.08412547	    -40.37069862	     -9.51862731	     -7.49999987	      9.36094536	     -7.55612174	     -1.26032900	     10.08734182	      0.17605733	    -40.56538250	    -19.04044634	     -7.49999987	     -1.20069035	     -2.66128853	     -3.30585130	     -0.22405783	     -3.01918665	    -21.83034756	     20.88860978	     71.78727887	      3.33282416	    -11.13228255	      8.32797019	     62.58363388	    100.93746724
      2.00000000	     -9.69754840	      2.32065920	      2.16247759	      0.52882923	      1.15733024	      0.00751283	     11.01273495	     -4.36577258	     -9.14855503	      4.13755189	      0.07221390	    -41.18247049	     -9.39498340	     -7.49999987	      9.36978638	     -7.62470121	     -0.87246496	      9.57656613	      0.16714261	    -40.03395075	    -18.39512626	     -7.49999987	     -1.15288132	     -2.39627121	     -3.26055725	      0.11848923	     -3.39548997	    -21.24467842	     21.16620667	     71.31982441	      3.96677823	    -10.93451325	      9.18717826	     63.02361097	    100.16695020
      2.00416670	     -9.57806973	      2.11736679	      2.24632705	      0.52881587	      1.15396443	      0.00799170	     10.75728174	     -4.11311257	     -9.10459705	      3.44101562	      0.06005705	    -41.75115067	     -9.58204818	     -7.49999987	      9.06955951	     -7.89784854	     -0.91881424	      9.05496447	      0.15803894	    -39.33564682	    -17.72913941	     -7.49999987	     -1.73924883	     -2.15531507	     -3.05130665	      0.31098308	     -3.81189204	    -19.69097059	     21.91123899	     70.39763885	      4.72121454	    -11.00653398	     10.49356956	     64.20990548	     97.88928533
      2.00833330	     -9.84091020	      1.90033115	      2.54533831	      0.53320526	      1.15622544	      0.01121692	     10.65604352	     -3.87617300	     -9.45576604	      2.65674006	      0.04636886	    -41.66931417	     -9.59246943	     -7.49999987	      8.94930550	     -8.19196275	     -0.87611806	      8.26511354	      0.14425344	    -38.95192509	    -17.20328183	     -7.49999987	     -1.15874849	     -2.02693640	     -3.12989604	      0.26753305	     -3.91851823	    -19.45999217	     21.94586833	     70.48973638	      4.93422874	    -10.72333586	     10.80248911	     64.68849812	     98.05200673
      2.01250000	     -9.47133618	      1.66280550	      2.57213689	      0.53294001	      1.15276814	      0.01156944	     10.06976967	     -3.46791824	     -9.95497152	      2.15691220	      0.03764522	    -41.49191956	     -9.43906795	     -7.49999987	      8.57142332	     -8.69366411	     -1.53916750	      8.12941204	      0.14188501	    -37.46993699	    -15.36983143	     -7.49999987	     -1.86443171	     -1.87756645	     -3.13500720	      0.59729407	     -4.43241488	    -16.74503103	     22.14923410	     70.36912976	      5.52050450	    -10.99289508	     12.16225242	     65.71070288	     97.20578798
      2.01666670	     -9.47671802	      1.51354414	      2.68594375	      0.53274781	      1.15024966	      0.01083158	     10.13007922	     -3.16874789	     -9.97903975	      2.07002968	      0.03612883	    -41.01431558	     -9.93071880	     -7.49999987	      8.99407574	     -8.99503310	     -1.39810811	      8.65269131	      0.15101795	    -36.47737361	    -15.05103613	     -7.49999987	     -2.08417637	     -1.78355740	     -3.15462576	      0.83331173	     -4.79821469	    -15.92071113	     22.08659257	     69.76467057	      5.95839166	    -10.89673665	     12.79348303	     66.44409899	     95.35511353
      2.02083330	     -9.42364220	      1.34042153	      2.76506346	      0.53237978	      1.14941741	      0.01109009	     10.28760993	     -2.93290735	    -10.03222358	      2.16794460	      0.03783777	    -40.72972510	    -10.34532160	     -7.49999987	      9.16500134	     -9.33090903	     -1.65914026	      8.89806092	      0.15530046	    -35.07334464	    -14.11361316	     -7.49999987	     -2.52911302	     -1.62952302	     -3.74834855	      1.36569072	     -5.56851812	    -12.24777092	     21.97709710	     71.43082718	      5.76856897	    -10.89105855	     12.18040550	     68.14833027	    101.10869335
      2.02500000	     -9.21057667	      1.24547203	      2.91052326	      0.53216537	      1.14460116	      0.01122791	     10.37544318	     -2.71667587	     -9.93078259	      2.32936894	      0.04065516	    -40.58289543	    -11.23450991	     -7.49999987	      9.26439916	     -9.54496381	     -1.39581250	      9.08059188	      0.15848623	    -34.22241918	    -13.62178568	     -7.49999987	     -3.46861164	     -1.28650478	     -3.58712986	      1.64600234	     -6.15899463	    -11.75483793	     22.63503801	     70.69335441	      6.62694705	    -10.87624153	     13.46229271	     69.12925351	     99.35777888
      2.02916670	     -9.19794189	      1.13904282	      3.38365799	      0.53159330	      1.14125435	      0.01170046	     10.68406864	     -2.60789081	     -9.81836401	      2.37250053	      0.04140795	    -40.01598852	    -11.39148730	     -7.49999987	     10.06297601	     -9.70002989	     -0.98003714	     10.01753150	      0.17483891	    -33.38061491	    -13.81095216	     -7.49999987	     -4.18132917	     -0.89068582	     -3.74416026	      1.99239535	     -6.66407277	    -11.43835318	     23.18754261	     70.85063727	      7.32412679	    -10.63082730	     13.94558750	     69.91228509	     99.47930069
      2.03333330	     -9.15748874	      1.19115269	      3.70675275	      0.53127668	      1.13894440	      0.01130244	     10.82578934	     -2.78361066	     -9.97702521	      2.18183086	      0.03808013	    -39.52554913	    -11.82794624	     -7.49999987	     10.52963362	     -9.62925337	     -0.89234886	     10.58145363	      0.18468121	    -32.25966205	    -13.89782023	     -7.49999987	     -4.83028137	     -0.75446664	     -3.99856126	      2.21317975	     -7.43926710	     -9.42512895	     23.90151504	     71.83404540	      8.07600844	    -10.71860761	     14.94133396	     71.13826996	    100.92107150
      2.03750000	     -9.09017716	      1.27534616	      4.14435187	      0.53080411	      1.14091630	      0.01117270	     10.76821012	     -3.01481988	    -10.57000944	      1.85862851	      0.03243919	    -39.33319019	    -11.90482736	     -7.49999987	     10.92524553	     -9.45149772	     -0.99680365	     10.87867795	      0.18986875	    -31.43833123	    -14.06634695	     -7.49999987	     -5.30529420	     -0.56512178	     -4.01126801	      2.25003456	     -7.85552456	     -9.37492758	     24.37206913	     70.66503323	      8.86898351	    -10.48131094	     16.01717871	     71.38550038	     98.00148981
      2.04166670	     -9.04745140	      1.31293037	      4.40188549	      0.53054815	      1.13305765	      0.01125340	     10.80612235	     -3.21751970	    -11.22075140	      1.71640143	      0.02995686	    -39.17662011	    -12.57547672	     -7.49999987	     11.31844046	     -9.31781057	     -1.06416356	     10.98675207	      0.19175500	    -30.89133020	    -14.46464250	     -7.49999987	     -5.87929673	     -0.42938472	     -3.99610478	      2.13107102	     -8.39090814	     -8.52192948	     25.32217202	     71.16589189	      9.62318853	    -10.48916916	     17.08551374	     72.30003738	     98.61564545
